<?xml version="1.0" encoding="utf-8"?>
<!-- Generator: Adobe Illustrator 26.0.3, SVG Export Plug-In . SVG Version: 6.00 Build 0)  -->
<svg version="1.1" id="Layer_1" xmlns="http://www.w3.org/2000/svg" xmlns:xlink="http://www.w3.org/1999/xlink" x="0px" y="0px"
	 viewBox="0 0 289.7 291.4" style="enable-background:new 0 0 289.7 291.4;" xml:space="preserve">
<style type="text/css">
	.st0{fill:#FFFFFF;}
	.st1{fill:#E31837;}
	.st2{fill:#006491;}
	.st3{display:none;}
	.st4{display:inline;}
	
		.st5{fill:none;stroke:#E8128C;stroke-width:1.5001;stroke-miterlimit:10.0004;stroke-dasharray:4.6185,4.6185,4.6185,4.6185,4.6185,4.6185;}
	
		.st6{fill:none;stroke:#E8128C;stroke-width:1.5;stroke-miterlimit:10.0003;stroke-dasharray:4.6184,4.6184,4.6184,4.6184,4.6184,4.6184;}
	
		.st7{fill:none;stroke:#E8128C;stroke-width:1.5;stroke-miterlimit:10.0006;stroke-dasharray:4.6185,4.6185,4.6185,4.6185,4.6185,4.6185;}
	
		.st8{fill:none;stroke:#E8128C;stroke-width:1.4999;stroke-miterlimit:9.9996;stroke-dasharray:4.6181,4.6181,4.6181,4.6181,4.6181,4.6181;}
</style>
<g id="logo">
	<path class="st0" d="M282.4,86.7L205.2,9.5c-3.3-3.2-7.6-5.1-12.2-5.1c-4.6,0-8.9,1.8-12.2,5.1l-64.7,64.7L8.4,181.9
		c-6.7,6.7-6.7,17.7,0,24.4l77.2,77.2c3.3,3.3,7.6,5,12.2,5s8.9-1.8,12.2-5l96.5-96.6l75.9-75.9C289.1,104.3,289.1,93.4,282.4,86.7"
		/>
	<path class="st1" d="M209.1,114.4c-4.4,4.4-10.1,6.5-15.8,6.5s-11.4-2.2-15.8-6.5c-4.4-4.4-6.6-10.1-6.6-15.8
		c0-5.7,2.2-11.5,6.6-15.8c4.4-4.4,10.1-6.6,15.8-6.6s11.4,2.2,15.8,6.6c4.4,4.3,6.6,10.1,6.6,15.8
		C215.6,104.4,213.4,110.1,209.1,114.4 M276.9,92.2L199.8,15c-3.7-3.7-9.8-3.7-13.5,0l-83.4,83.4l90.6,90.6l83.4-83.4
		C280.6,101.9,280.6,95.9,276.9,92.2"/>
	<path class="st2" d="M114.7,178.9c4.4-4.4,10.1-6.6,15.8-6.6c5.7,0,11.4,2.2,15.8,6.6c4.4,4.4,6.6,10.1,6.6,15.8
		s-2.2,11.4-6.6,15.8c-4.4,4.4-10.1,6.5-15.8,6.6c-5.7,0-11.4-2.2-15.8-6.6c-4.4-4.4-6.6-10.1-6.6-15.8S110.3,183.2,114.7,178.9
		 M80.7,209.6c-4.4,4.3-10.1,6.5-15.8,6.5s-11.4-2.2-15.8-6.5c-4.4-4.4-6.5-10.1-6.5-15.8s2.2-11.4,6.5-15.8
		c4.4-4.4,10.1-6.5,15.8-6.5s11.4,2.2,15.8,6.5c4.4,4.4,6.5,10.1,6.5,15.8S85,205.2,80.7,209.6 M13.9,187.4c-3.7,3.7-3.7,9.8,0,13.5
		L91,278c1.9,1.9,4.3,2.8,6.7,2.8c2.4,0,4.9-0.9,6.7-2.8l83.4-83.4L97.3,104L13.9,187.4z"/>
	<g>
		<path class="st1" d="M223.5,250.4l12-12.4l0.1,7.2c0,1.3,1.2,0.7,1.2,0.7l9.1-3.1l-3,9.3c-0.4,1,0.5,1.1,0.5,1.1l6.1,1.6
			L231.6,268c-0.5,0.5-0.1,0.9-0.1,0.9l2.8,4.8l-19.7-2.5l-21.8,2.8l2.8-4.9c0.5-0.9-0.4-1.3-0.4-1.3l-18-12.6l5.7-1.6
			c1.4-0.5,0.7-1.6,0.7-1.6l-3-8.9l9.6,3.1c1.3,0.3,1-1,1-1l-0.2-6.9l12.2,12.2c0.7,0.2,0.5-0.5,0.5-0.5l-4.9-23.7l8.7,3.9
			c1.6,0.5,1.8-1.1,1.8-1.1l3.7-12.4l4.2,12.5c0.5,1.8,1.6,1,1.6,1l8.6-4.1"/>
		<polygon class="st1" points="215.9,288.5 213.2,288.5 213.6,268.8 215.3,268.8 		"/>
	</g>
	<g>
		<path class="st0" d="M137.7,286.9c-4.2,0-7.7-3.4-7.7-7.7c0-4.3,3.4-7.7,7.7-7.7s7.7,3.4,7.7,7.7S142,286.9,137.7,286.9z
			 M137.7,272.7c-3.6,0-6.5,2.9-6.5,6.5s2.9,6.5,6.5,6.5s6.5-2.9,6.5-6.5S141.3,272.7,137.7,272.7z M139.8,283.7l-2.3-3.5H136v3.5
			h-1.2v-8.8h3.6c1.5,0,2.9,1,2.9,2.7c0,2-1.7,2.6-2.2,2.6l2.4,3.5L139.8,283.7L139.8,283.7z M138.4,276H136v3.1h2.4
			c0.8,0,1.6-0.6,1.6-1.5C140,276.6,139.1,276,138.4,276z"/>
	</g>
</g>
<g id="guide" class="st3">
	<g class="st4">
		<ellipse class="st5" cx="152.4" cy="237.1" rx="17.7" ry="17.7"/>
	</g>
	<g class="st4">
		<ellipse class="st6" cx="181.5" cy="22.2" rx="17.7" ry="17.7"/>
	</g>
	<g class="st4">
		
			<ellipse transform="matrix(0.6552 -0.7555 0.7555 0.6552 10.4889 240.3751)" class="st7" cx="268.6" cy="108.7" rx="17.7" ry="17.7"/>
	</g>
	<g class="st4">
		<ellipse class="st8" cx="21.1" cy="183.3" rx="17.6" ry="17.6"/>
	</g>
	<g class="st4">
		
			<ellipse transform="matrix(0.8507 -0.5257 0.5257 0.8507 -126.0947 96.8796)" class="st7" cx="107.5" cy="270.4" rx="17.7" ry="17.7"/>
	</g>
</g>
</svg>
