<!DOCTYPE svg PUBLIC "-//W3C//DTD SVG 1.1//EN" "http://www.w3.org/Graphics/SVG/1.1/DTD/svg11.dtd">
<!-- Uploaded to: SVG Repo, www.svgrepo.com, Transformed by: SVG Repo Mixer Tools -->
<svg fill="#ff781f" version="1.1" id="Capa_1" xmlns="http://www.w3.org/2000/svg" xmlns:xlink="http://www.w3.org/1999/xlink" width="800px" height="800px" viewBox="0 0 121.838 121.838" xml:space="preserve" stroke="#ff781f">
<g id="SVGRepo_bgCarrier" stroke-width="0"/>
<g id="SVGRepo_tracerCarrier" stroke-linecap="round" stroke-linejoin="round"/>
<g id="SVGRepo_iconCarrier"> <g> <g> <path d="M13.434,60.649l-9.122,2.909l4.429,13.896l15.861-5.058l-3.123-9.796L13.434,60.649z M18.559,71.921l-5.348-2.762 l-2.764,5.348l-0.722-0.372l2.767-5.349l-5.351-2.764l0.371-0.719l5.35,2.763l2.764-5.349l0.719,0.372l-2.764,5.348l5.348,2.764 L18.559,71.921z"/> <path d="M112.193,102.571l-0.215,0.108l-1.59-0.66c1.163-0.352,2.219-0.834,3.158-1.436l8.291-1.212l-0.15-1.04l-6.475,0.945 c2.348-2.248,3.6-5.507,3.521-9.5c-0.147-7.67-5.504-12.859-5.731-13.077l-3.324-3.173l1.142,4.221 c-0.141-0.291-0.293-0.586-0.457-0.886c-2.416-4.418-8.494-7.596-8.752-7.729l-4.412-2.281l2.753,4.134 c0.026,0.038,2.522,3.854,1.288,7.687c-0.484,1.502-1.235,3.057-2.03,4.702c-1.513,3.128-3.076,6.363-3.076,9.816 c0,3.405,2.118,6.452,5.194,8.115l-8.297,1.214l0.152,1.04l9.995-1.462c1.065,0.343,2.2,0.54,3.378,0.54l0,0 c0.447,0,0.902-0.03,1.342-0.088c0.25-0.033,0.487-0.082,0.729-0.124l2.118,0.878l-5.214,2.64l-3.104-3.266l-0.762,0.724 l2.885,3.038l-2.74,1.391l0.476,0.938l3.022-1.531l1.354,1.425l0.761-0.725l-1.137-1.194l5.738-2.905l5.593,2.319l0.403-0.973 l-5.701-2.364L112.193,102.571z M103.818,100.943c-3.555-1.07-6.399-4.126-6.399-7.752c0-4.899,3.604-9.655,5.044-14.125 c1.439-4.467-1.439-8.792-1.439-8.792s5.957,3.081,8.215,7.205c3.315,6.057,1.152,9.66,1.152,9.66s1.674-1.993,2.092-3.962 c0.502-2.379-0.361-5.548-0.361-5.548s5.191,4.95,5.331,12.173c0.097,5.006-1.991,8.134-4.908,9.866L103.818,100.943z"/> <path d="M116.166,89.828c-0.059-3.093-1.13-5.748-2.262-7.703c-0.025,0.445-0.077,0.892-0.168,1.317 c-0.479,2.26-0.86,3.02-2.363,4.522c-1.245,0.991-2.768-0.332-2.083-1.487c0.438-0.743,1.692-3.132-1.179-8.382 c-0.969-1.767-2.735-3.354-4.33-4.54c0.425,1.697,0.592,3.774-0.098,5.904c-0.539,1.673-1.361,3.38-2.162,5.031 c-1.388,2.868-2.818,5.835-2.818,8.699c0,3.664,3.669,6.878,7.854,6.878l0,0c0.338,0,0.678-0.021,1.01-0.064 C110.206,99.656,116.327,97.968,116.166,89.828z"/> <path d="M58.008,31.402c6.532,0.915,12.569-3.638,13.485-10.17c0.916-6.531-3.64-12.568-10.173-13.483 c-6.528-0.915-12.567,3.638-13.481,10.17C46.923,24.45,51.476,30.487,58.008,31.402z"/> <path d="M85.443,53.713L66.602,44.66l-9.126-11.4c-0.1-0.123-0.208-0.248-0.321-0.364c-0.55-0.565-1.206-0.958-1.901-1.211 c-0.938-0.688-1.997-1.247-3.171-1.618c-1.873-0.594-3.786-0.649-5.579-0.266c-0.73-0.112-1.494-0.07-2.248,0.162l-14.031,4.321 l-0.431,0.133c-0.903,0.28-1.704,0.901-2.192,1.8L22.6,45.422l-2.471,4.636l-1.226,2.357l-0.615,1.221l-0.327,0.682l-0.206,0.453 c-0.164,0.384-0.288,0.795-0.363,1.197c-0.033,0.218-0.037,0.433-0.026,0.645C12.216,58.255,0,62.15,0,62.15l6.035,18.948 l22.422-7.146c0.249-0.151,0.498-0.308,0.751-0.457c0.362-0.215,0.726-0.425,1.09-0.636l-0.228,6.577l-14.124,24.077 c-0.927,1.592-0.507,3.669,1.024,4.753c1.62,1.148,3.864,0.763,5.012-0.856l16.955-23.953c0.37-0.525,0.63-1.161,0.71-1.845 l0.05-0.41l0.942-7.813c0.174,0.02,0.345,0.036,0.52,0.047l11.906,13.862l-5.014,22.531c-0.396,1.807,0.647,3.659,2.447,4.216 c1.897,0.586,3.909-0.478,4.494-2.374l7.548-24.442c0.373-1.229,0.19-2.633-0.624-3.751l-0.219-0.301l-10.708-14.71 c0.524-0.807,0.955-1.692,1.259-2.654l5.599-17.682l2.766,2.846l0.293,0.303c0.342,0.35,0.765,0.631,1.252,0.813l20.687,7.721 c1.587,0.587,3.404-0.114,4.151-1.672C87.791,56.491,87.094,54.507,85.443,53.713z M21.925,59.483 c0.4,0.316,0.849,0.584,1.332,0.776c0.056,0.179,0.116,0.366,0.18,0.564l-3.221-1.113C20.817,59.795,21.4,59.7,21.925,59.483z M17.659,57.793c0.289,0.63,0.763,1.161,1.371,1.509l-2.928-1.012C16.7,58.1,17.222,57.933,17.659,57.793z M8.167,78.565 L3.2,62.984l10.808-3.445l8.062,2.007l3.644,11.425L8.167,78.565z M31.372,59.203c-0.492,1.551-0.608,3.126-0.423,4.642 c-0.235,0.582-0.383,1.211-0.404,1.876l-0.147,4.244l-0.457-1.435c-0.284-0.892-1.237-1.383-2.127-1.1 c-0.117,0.037-0.226,0.086-0.325,0.145c0,0-1.321-4.111-2.237-6.976l-2.093-1.98c0.416-0.472,0.703-1.062,0.797-1.73 c0.004,0.202-0.037,0.412-0.117,0.595l-0.03,0.066l0.018-0.028l0.034-0.055l0.067-0.111l0.286-0.467l0.665-1.052l1.398-2.148 l2.877-4.316l4.738-6.994l3-0.611L31.372,59.203z"/> <path d="M96.947,54.36c0.521-0.152,0.92-0.456,1.195-0.736c-0.074,0.017-0.152,0.027-0.229,0.032 c-0.404,0.023-0.551-0.006-0.872-0.189c-0.226-0.165-0.072-0.482,0.155-0.42c0.146,0.04,0.605,0.142,1.359-0.585 c0.254-0.245,0.439-0.615,0.565-0.938c-0.267,0.15-0.608,0.273-1.001,0.255c-0.309-0.015-0.633-0.074-0.948-0.133 c-0.548-0.102-1.112-0.208-1.597-0.075c-0.584,0.159-0.944,0.854-0.82,1.523l-6.578,2.285l0.275,0.795l6.669-2.314 C95.438,54.258,95.995,54.64,96.947,54.36z"/> </g> </g> </g>
</svg>